PathFileType	4	(X/Y/Z)	C:\Documents and Settings\mvidt\Desktop\Forward_reach_ACS_12-5-11\acs_forward8.trc
DataRate	CameraRate	NumFrames	NumMarkers	Units	OrigDataRate	OrigDataStartFrame	OrigNumFrames
200.00	200.00	      24	10	mm	200.00	501	      1000
Frame#	Time	R.Clavicle			C7			R.Shoulder			R.Bicep			R.Elbow.Lateral			R.Forearm			R.Radius			Handle			R.Elbow.Medial			R.Ulna			
		X1	Y1	Z1	X2	Y2	Z2	X3	Y3	Z3	X4	Y4	Z4	X5	Y5	Z5	X6	Y6	Z6	X7	Y7	Z7	X8	Y8	Z8	X9	Y9	Z9	X10	Y10	Z10	

501	2.500	-378.99866	346.42868	305.58337				-390.89584	178.22755	314.07275	-227.95059	158.65562	230.15321	-164.27730	111.86326	145.30103	-53.97646	116.10029	176.93521	111.07841	115.11729	150.07288	236.38402	96.59614	160.78119	-157.02591	194.82153	115.58038	87.05203	56.70101	90.44299	
502	2.505	-378.99866	346.42868	305.58337				-390.89584	178.22755	314.07275	-228.04919	158.91742	230.16669	-164.27730	111.86326	145.30103	-53.97646	116.10029	176.93521	110.81587	114.95982	150.28600	236.38402	96.59614	160.78119	-155.75285	195.42369	115.96776	87.05203	56.70101	90.44299	
503	2.510	-378.99866	346.42868	305.58337				-390.89584	178.22755	314.07275	-227.76315	159.16992	230.26941	-164.27730	111.86326	145.30103	-53.97646	116.10029	176.93521	110.81587	114.95982	150.28600	236.38402	96.59614	160.78119	-157.02591	194.82153	115.58038	86.83273	57.03845	90.41455	
504	2.515	-378.99866	346.42868	305.58337				-390.89584	178.22755	314.07275	-227.47710	159.42244	230.37212	-164.27730	111.86326	145.30103	-53.97646	116.10029	176.93521	110.81587	114.95982	150.28600	236.38402	96.59614	160.78119	-155.75285	195.42369	115.96776	87.05203	56.70101	90.44299	
505	2.520	-378.99866	346.42868	305.58337				-390.89584	178.22755	314.07275	-227.95059	158.65562	230.15321	-164.27730	111.86326	145.30103	-53.97646	116.10029	176.93521	110.81587	114.95982	150.28600	236.23303	96.79713	160.83365	-157.02591	194.82153	115.58038	86.83273	57.03845	90.41455	
506	2.525	-378.99866	346.42868	305.58337				-390.71063	178.31915	314.16821	-227.47710	159.42244	230.37212	-164.27730	111.86326	145.30103	-53.70025	115.74191	176.94781	110.80242	114.74847	150.55255	236.13107	96.72345	161.06137	-155.75285	195.42369	115.96776	86.83273	57.03845	90.41455	
507	2.530	-378.99866	346.42868	305.58337				-390.71063	178.31915	314.16821	-228.15184	159.62476	230.24190	-164.27730	111.86326	145.30103	-53.70025	115.74191	176.94781	110.81587	114.95982	150.28600	236.02193	96.36398	161.25078	-157.02591	194.82153	115.58038	86.83273	57.03845	90.41455	
508	2.535	-378.99866	346.42868	305.58337				-390.59232	178.47415	314.17404	-228.63857	158.00964	229.90080	-164.27730	111.86326	145.30103	-53.70025	115.74191	176.94781	110.81587	114.95982	150.28600	236.01982	96.36542	161.45914	-157.10732	194.67786	114.96297	86.83273	57.03845	90.41455	
509	2.540	-378.99866	346.42868	305.58337				-390.63773	178.48140	314.13364	-228.63857	158.00964	229.90080	-164.27730	111.86326	145.30103	-53.70025	115.74191	176.94781	110.81587	114.95982	150.28600	235.79091	96.72552	161.62289	-156.79088	194.71939	114.44575	86.83273	57.03845	90.41455	
510	2.545	-378.99866	346.42868	305.58337				-390.59232	178.47415	314.17404	-228.63857	158.00964	229.90080	-164.73476	112.09183	144.91676	-53.97646	116.10029	176.93521	110.95605	114.79240	150.83733	235.86581	96.51530	161.68031	-157.73929	194.28967	114.26637	86.83273	57.03845	90.41455	
511	2.550	-378.99866	346.42868	305.58337				-390.59232	178.47415	314.17404	-228.63857	158.00964	229.90080	-164.73476	112.09183	144.91676	-53.97646	116.10029	176.93521	111.13136	114.38940	150.77090	235.80449	96.51003	161.78557	-156.79088	194.71939	114.44575	86.68295	57.02269	90.70573	
512	2.555	-378.99866	346.42868	305.58337				-390.59232	178.47415	314.17404	-228.63857	158.00964	229.90080	-164.18114	111.57698	145.00212	-53.97646	116.10029	176.93521	110.95605	114.79240	150.83733	235.65625	96.63270	161.74118	-156.49149	194.77176	114.02702	87.01260	56.70914	91.04996	
513	2.560	-378.99866	346.42868	305.58337				-390.52646	178.62466	314.14059	-228.63857	158.00964	229.90080	-164.05495	111.29540	144.76028	-53.97646	116.10029	176.93521	110.95605	114.79240	150.83733	235.40793	96.20901	162.26434	-156.89398	194.46518	113.24036	87.01260	56.70914	91.04996	
514	2.565	-378.99866	346.42868	305.58337				-390.59232	178.47415	314.17404	-227.95059	158.65562	230.15321	-164.05495	111.29540	144.76028	-54.22153	115.88887	176.59674	110.79589	114.17559	151.01039	235.26788	96.26348	162.42152	-156.89398	194.46518	113.24036	87.08647	57.05740	91.58894	
515	2.570	-379.60403	346.59222	305.38678				-390.52646	178.62466	314.14059	-228.63857	158.00964	229.90080	-164.63286	111.50439	144.14844	-54.22153	115.88887	176.59674	110.99875	114.00708	151.19067	235.34995	96.24026	162.52406	-158.04315	193.96663	113.15401	87.08647	57.05740	91.58894	
516	2.575	-379.60403	346.59222	305.38678				-390.76532	178.39241	314.08264	-228.82794	158.69113	229.95215	-164.70566	111.52284	144.05887	-54.22153	115.88887	176.59674	110.36729	113.91675	151.33452	235.44203	96.07519	162.66876	-156.89398	194.46518	113.24036	87.08647	57.05740	91.58894	
517	2.580	-379.82486	346.67960	304.97653				-391.18036	178.41582	314.24985	-228.82794	158.69113	229.95215	-164.70566	111.52284	144.05887	-53.94813	115.58231	176.63899	110.03999	113.49847	151.47432	235.80370	96.46879	163.11238	-158.21205	193.82500	112.74982	87.08647	57.05740	91.58894	
518	2.585	-379.60403	346.59222	305.38678				-391.19189	177.95880	314.18234	-228.82794	158.69113	229.95215	-164.66219	111.30737	143.78778	-54.53841	115.94681	176.36418	110.06755	113.73279	151.72087	235.74782	96.64915	163.46733	-159.11476	193.44037	112.72117	87.08647	57.05740	91.58894	
519	2.590	-379.48102	346.60718	304.83917				-391.19189	177.95880	314.18234	-229.14452	159.23064	229.73268	-164.86349	111.22533	143.32939	-54.53841	115.94681	176.36418	109.62969	113.18037	152.15813	235.38416	96.53786	163.95062	-158.04315	193.96663	113.15401	86.67047	56.64827	92.20875	
520	2.595	-379.48102	346.60718	304.83917				-391.19189	177.95880	314.18234	-229.41812	158.32278	229.54085	-164.86349	111.22533	143.32939	-54.53841	115.94681	176.36418	109.62969	113.18037	152.15813	235.25110	96.81377	164.46066	-158.04315	193.96663	113.15401	86.67047	56.64827	92.20875	
521	2.600	-379.48102	346.60718	304.83917				-391.19189	177.95880	314.18234	-228.90186	158.72040	229.30075	-165.36154	111.68903	143.25221	-55.57817	116.14335	176.04179	108.90112	112.46433	152.93640	234.86749	96.75894	165.14532	-158.04315	193.96663	113.15401	86.37880	56.59982	92.67310	
522	2.605	-379.82486	346.67960	304.97653				-391.84253	178.44965	314.77869	-228.90186	158.72040	229.30075	-164.86349	111.22533	143.32939	-55.22194	116.03631	176.05923	108.81706	113.03172	153.09099	234.89883	96.49078	165.51854	-158.42599	192.93382	113.86382	86.37880	56.59982	92.67310	
523	2.610	-379.48102	346.60718	304.83917				-392.02487	178.28110	314.68936	-228.90186	158.72040	229.30075	-165.96548	110.39036	143.37772	-55.69757	115.48376	176.38945	108.96986	113.16634	153.75523	234.40689	96.78242	166.32159	-158.66475	192.01643	113.46664	86.37880	56.59982	92.67310	
524	2.615	-379.48102	346.60718	304.83917				-392.02487	178.28110	314.68936	-229.16231	158.59296	229.22174	-166.15337	109.08939	144.16805	-56.13186	115.38962	176.61899	108.28087	113.85461	153.76952	233.74544	96.91852	167.15277	-158.18935	191.89160	113.84963	86.67924	56.73491	93.05091	
